<?xml version="1.0" encoding="UTF-8"?>
<svg width="413px" height="43px" viewBox="0 0 413 43" version="1.1" xmlns="http://www.w3.org/2000/svg" xmlns:xlink="http://www.w3.org/1999/xlink">
    <!-- Generator: Sketch 54.1 (76490) - https://sketchapp.com -->
    <title>UnrivaledConcepts</title>
    <desc>Created with Sketch.</desc>
    <g id="Page-1" stroke="none" stroke-width="1" fill="none" fill-rule="evenodd">
        <path d="M15.353,34.552 C5.003,34.552 0.173,28.986 0.173,21.396 L0.173,3.318 L9.603,3.318 L9.603,21.074 C9.603,24.018 11.535,26.364 15.353,26.364 C19.125,26.364 21.057,24.018 21.057,21.074 L21.057,3.318 L30.487,3.318 L30.487,21.35 C30.487,28.986 25.703,34.552 15.353,34.552 Z M58.593,34 L50.313,34 L50.313,21.718 C50.313,19.418 49.071,18.544 47.093,18.544 C45.207,18.544 44.241,19.51 43.551,20.292 L43.551,34 L35.271,34 L35.271,11.782 L43.551,11.782 L43.551,14.312 C44.839,12.84 47.277,11.23 51.187,11.23 C56.339,11.23 58.593,14.358 58.593,18.222 L58.593,34 Z M71.473,34 L63.193,34 L63.193,11.782 L71.473,11.782 L71.473,14.22 C72.853,12.61 75.751,11.138 78.281,11.138 L78.281,19.05 C77.867,18.912 77.177,18.82 76.395,18.82 C74.647,18.82 72.393,19.28 71.473,20.384 L71.473,34 Z M85.273,10.172 C82.697,10.172 80.627,8.102 80.627,5.526 C80.627,2.95 82.697,0.88 85.273,0.88 C87.849,0.88 89.919,2.95 89.919,5.526 C89.919,8.102 87.849,10.172 85.273,10.172 Z M89.413,34 L81.133,34 L81.133,11.782 L89.413,11.782 L89.413,34 Z M108.411,34 L99.625,34 L91.023,11.782 L99.763,11.782 L103.995,24.478 L108.273,11.782 L117.013,11.782 L108.411,34 Z M139.737,34 L131.457,34 L131.457,31.884 C130.215,33.448 127.501,34.552 124.741,34.552 C121.429,34.552 117.105,32.298 117.105,27.238 C117.105,21.718 121.429,20.154 124.741,20.154 C127.639,20.154 130.261,21.074 131.457,22.592 L131.457,20.292 C131.457,18.728 130.031,17.532 127.317,17.532 C125.247,17.532 122.901,18.36 121.153,19.694 L118.347,14.588 C121.337,12.196 125.477,11.23 128.835,11.23 C134.355,11.23 139.737,13.162 139.737,20.568 L139.737,34 Z M128.191,29.17 C129.479,29.17 130.905,28.756 131.457,27.974 L131.457,26.732 C130.905,25.95 129.479,25.536 128.191,25.536 C126.811,25.536 125.293,25.996 125.293,27.376 C125.293,28.756 126.811,29.17 128.191,29.17 Z M152.617,34 L144.337,34 L144.337,3.318 L152.617,3.318 L152.617,34 Z M168.073,34.552 C161.127,34.552 155.699,30.182 155.699,22.868 C155.699,16.428 160.621,11.23 167.797,11.23 C174.329,11.23 179.343,15.922 179.343,23.742 L179.343,25.444 L164.255,25.444 C164.715,26.87 166.325,28.25 169.039,28.25 C170.281,28.25 173.041,27.652 174.145,26.686 L177.549,31.792 C175.341,33.678 171.385,34.552 168.073,34.552 Z M171.477,20.2 C171.247,19.234 170.465,17.532 167.797,17.532 C165.267,17.532 164.439,19.188 164.163,20.2 L171.477,20.2 Z M205.011,34 L196.731,34 L196.731,31.654 C194.845,33.77 192.729,34.552 190.475,34.552 C185.093,34.552 180.677,30.504 180.677,22.868 C180.677,15.508 185.001,11.23 190.475,11.23 C192.729,11.23 194.983,12.012 196.731,14.128 L196.731,3.318 L205.011,3.318 L205.011,34 Z M193.281,27.238 C194.385,27.238 195.949,26.686 196.731,25.72 L196.731,20.016 C195.949,19.05 194.385,18.544 193.281,18.544 C191.027,18.544 189.141,20.108 189.141,22.868 C189.141,25.628 191.027,27.238 193.281,27.238 Z M237.027,34.552 C227.965,34.552 220.927,28.112 220.927,18.682 C220.927,9.252 227.965,2.812 237.027,2.812 C243.237,2.812 247.055,6.032 249.355,9.712 L244.755,12.058 C243.283,9.528 240.339,7.596 237.027,7.596 C230.955,7.596 226.447,12.242 226.447,18.682 C226.447,25.122 230.955,29.768 237.027,29.768 C240.339,29.768 243.283,27.882 244.755,25.306 L249.355,27.652 C247.009,31.332 243.237,34.552 237.027,34.552 Z M263.569,34.552 C256.531,34.552 252.161,29.262 252.161,22.868 C252.161,16.52 256.531,11.23 263.569,11.23 C270.699,11.23 275.023,16.52 275.023,22.868 C275.023,29.262 270.699,34.552 263.569,34.552 Z M263.569,30.274 C267.709,30.274 270.009,26.824 270.009,22.868 C270.009,18.958 267.709,15.508 263.569,15.508 C259.475,15.508 257.175,18.958 257.175,22.868 C257.175,26.824 259.475,30.274 263.569,30.274 Z M299.725,34 L294.895,34 L294.895,20.108 C294.895,16.658 293.147,15.508 290.433,15.508 C287.949,15.508 285.833,16.98 284.729,18.498 L284.729,34 L279.899,34 L279.899,11.782 L284.729,11.782 L284.729,14.818 C286.201,13.07 289.053,11.23 292.549,11.23 C297.333,11.23 299.725,13.806 299.725,18.36 L299.725,34 Z M316.101,34.552 C309.339,34.552 304.601,29.63 304.601,22.868 C304.601,16.152 309.339,11.23 316.101,11.23 C320.425,11.23 323.047,13.07 324.611,15.186 L321.437,18.13 C320.195,16.382 318.493,15.508 316.331,15.508 C312.283,15.508 309.615,18.544 309.615,22.868 C309.615,27.192 312.283,30.274 316.331,30.274 C318.493,30.274 320.195,29.354 321.437,27.652 L324.611,30.596 C323.047,32.712 320.425,34.552 316.101,34.552 Z M339.101,34.552 C332.431,34.552 327.463,29.906 327.463,22.868 C327.463,16.428 332.155,11.23 338.733,11.23 C345.403,11.23 349.681,16.336 349.681,23.328 L349.681,24.478 L332.523,24.478 C332.891,27.836 335.421,30.596 339.607,30.596 C341.769,30.596 344.345,29.722 345.909,28.158 L348.117,31.332 C345.909,33.448 342.643,34.552 339.101,34.552 Z M344.989,21.074 C344.897,18.452 343.103,15.186 338.733,15.186 C334.593,15.186 332.707,18.36 332.477,21.074 L344.989,21.074 Z M366.425,34.552 C363.619,34.552 361.089,33.31 359.295,30.918 L359.295,42.464 L354.465,42.464 L354.465,11.782 L359.295,11.782 L359.295,14.818 C360.951,12.61 363.527,11.23 366.425,11.23 C372.175,11.23 376.269,15.554 376.269,22.868 C376.269,30.182 372.175,34.552 366.425,34.552 Z M364.999,30.274 C368.817,30.274 371.255,27.192 371.255,22.868 C371.255,18.59 368.817,15.508 364.999,15.508 C362.745,15.508 360.353,16.842 359.295,18.498 L359.295,27.284 C360.353,28.894 362.745,30.274 364.999,30.274 Z M387.723,34.552 C383.997,34.552 382.019,32.528 382.019,28.848 L382.019,16.014 L378.339,16.014 L378.339,11.782 L382.019,11.782 L382.019,5.71 L386.849,5.71 L386.849,11.782 L391.357,11.782 L391.357,16.014 L386.849,16.014 L386.849,27.652 C386.849,29.17 387.585,30.274 388.965,30.274 C389.885,30.274 390.759,29.906 391.127,29.492 L392.277,33.126 C391.403,33.954 389.977,34.552 387.723,34.552 Z M403.317,34.552 C399.545,34.552 396.095,33.356 393.795,31.102 L396.003,27.606 C397.567,29.216 400.649,30.734 403.547,30.734 C406.445,30.734 407.917,29.492 407.917,27.744 C407.917,23.374 394.485,26.502 394.485,17.992 C394.485,14.358 397.613,11.23 403.225,11.23 C406.997,11.23 409.849,12.564 411.873,14.358 L409.849,17.762 C408.515,16.244 406.031,15.094 403.271,15.094 C400.741,15.094 399.131,16.244 399.131,17.808 C399.131,21.764 412.563,18.82 412.563,27.652 C412.563,31.562 409.297,34.552 403.317,34.552 Z" id="UnrivaledConcepts" fill="#000000" fill-rule="nonzero"></path>
    </g>
</svg>