<?xml version="1.0" encoding="UTF-8"?>
<svg width="531px" height="150px" viewBox="0 0 531 150" version="1.1" xmlns="http://www.w3.org/2000/svg" xmlns:xlink="http://www.w3.org/1999/xlink">
    <!-- Generator: Sketch 41.2 (35397) - http://www.bohemiancoding.com/sketch -->
    <title>Group</title>
    <desc>Created with Sketch.</desc>
    <defs></defs>
    <g id="Page-1" stroke="none" stroke-width="1" fill="none" fill-rule="evenodd">
        <g id="Group">
            <path d="M66.564,33.736 C66.564,31.4319885 66.5879998,29.7520053 66.636,28.696 C66.6840002,27.6399947 66.7559995,26.6560046 66.852,25.744 C66.9480005,24.8319954 67.2599974,24.2560012 67.788,24.016 C68.3160026,23.7759988 68.8439974,23.6080005 69.372,23.512 C69.9000026,23.4159995 70.7879938,23.368 72.036,23.368 C78.2760312,23.368 82.2599914,26.6559671 83.988,33.232 C85.7160086,39.8080329 84.7080187,47.895952 80.964,57.496 C76.8359794,67.7680514 71.6040317,74.5839832 65.268,77.944 C58.9319683,81.3040168 52.164036,80.7760221 44.964,76.36 C41.9879851,74.5359909 39.9720053,73.5760005 38.916,73.48 C37.8599947,73.3839995 36.6120072,74.0079933 35.172,75.352 C33.0599894,77.2720096 29.7480226,78.2799995 25.236,78.376 C20.7239774,78.4720005 16.9320154,77.6560086 13.86,75.928 C4.83595488,70.935975 0.41999904,62.8720557 0.612,51.736 C0.90000144,42.4239534 2.81998224,35.8960187 6.372,32.152 C9.92401776,28.4079813 14.0519765,28.5519798 18.756,32.584 C20.7720101,34.3120086 21.8519993,35.8239935 21.996,37.12 C22.1400007,38.4160065 21.5400067,41.7039736 20.196,46.984 C18.6599923,52.2640264 18.0119988,56.5359837 18.252,59.8 C18.4920012,63.0640163 19.5239909,64.696 21.348,64.696 C22.6920067,64.696 24.9959837,62.0320266 28.26,56.704 C31.5240163,51.3759734 33.4919966,46.9360178 34.164,43.384 C34.9320038,39.5439808 36.515988,36.8320079 38.916,35.248 C41.316012,33.6639921 43.9559856,33.6399923 46.836,35.176 C49.8120149,36.7120077 51.7799952,38.8959858 52.74,41.728 C53.7000048,44.5600142 53.8920029,48.7599722 53.316,54.328 C52.4519957,62.7760422 53.1719885,65.9440106 55.476,63.832 C57.0120077,62.4879933 58.979988,59.3680245 61.38,54.472 C64.8360173,47.6559659 66.564,40.744035 66.564,33.736 Z M96.516,26.824 C98.5320101,25.4799933 100.955986,25.0479976 103.788,25.528 C106.620014,26.0080024 108.755993,27.2559899 110.196,29.272 C111.348006,31.0000086 111.852001,32.9439892 111.708,35.104 C111.563999,37.2640108 110.724008,41.6079674 109.188,48.136 C107.555992,54.5680322 106.572002,59.4159837 106.236,62.68 C105.899998,65.9440163 106.139996,68.271993 106.956,69.664 C107.772004,71.056007 109.283989,71.8959986 111.492,72.184 C113.604011,72.376001 115.211994,72.0400043 116.316,71.176 C117.420006,70.3119957 118.643993,68.4400144 119.988,65.56 C120.948005,63.5439899 121.907995,60.5440199 122.868,56.56 C123.828005,52.5759801 124.451999,48.8080178 124.74,45.256 C125.028001,41.7999827 125.507997,38.6320144 126.18,35.752 C126.852003,32.8719856 127.427998,31.2880014 127.908,31 C129.444008,29.9439947 132.083981,30.2079921 135.828,31.792 C139.572019,33.3760079 142.067994,35.271989 143.316,37.48 C144.660007,39.880012 145.140002,43.2159786 144.756,47.488 C144.371998,51.7600214 143.508007,56.1519774 142.164,60.664 C140.819993,65.1760226 138.924012,69.5679786 136.476,73.84 C134.027988,78.1120214 131.412014,81.3999885 128.628,83.704 C126.035987,85.912011 123.828009,87.2559976 122.004,87.736 C120.179991,88.2160024 117.156021,88.1680029 112.932,87.592 C106.115966,86.6319952 101.652011,85.3840077 99.54,83.848 C96.0839827,81.8319899 93.1800118,78.4720235 90.828,73.768 C88.4759882,69.0639765 87.3479995,64.5520216 87.444,60.232 C87.636001,55.239975 88.8599887,48.6880406 91.116,40.576 C93.3720113,32.4639594 95.1719933,27.8800053 96.516,26.824 Z M167.508,25.096 C170.868017,22.9839894 174.179984,22.0719986 177.444,22.36 C180.708016,22.6480014 184.691976,24.1359866 189.396,26.824 C193.620021,29.416013 196.475993,32.0319868 197.964,34.672 C199.452007,37.3120132 199.428008,39.6879894 197.892,41.8 C196.547993,43.6240091 195.420005,44.536 194.508,44.536 C193.595995,44.536 191.412017,43.7200082 187.956,42.088 C183.059976,39.879989 180.036006,39.2079957 178.884,40.072 C177.347992,40.9360043 176.651999,42.3039906 176.796,44.176 C176.940001,46.0480094 177.779992,46.984 179.316,46.984 C181.140009,46.984 184.739973,48.9519803 190.116,52.888 C193.668018,55.480013 195.947995,57.5679921 196.956,59.152 C197.964005,60.7360079 198.468,63.1119842 198.468,66.28 C198.468,71.8480278 196.956015,76.6239801 193.932,80.608 C190.907985,84.5920199 187.188022,87.3279926 182.772,88.816 C178.355978,90.3040074 173.460027,90.4720058 168.084,89.32 C162.707973,88.1679942 157.812022,85.5760202 153.396,81.544 C150.419985,78.7599861 148.596003,76.7200065 147.924,75.424 C147.251997,74.1279935 147.395995,72.7120077 148.356,71.176 C149.892008,68.583987 152.363983,67.192001 155.772,67 C159.180017,66.807999 161.699992,67.9599875 163.332,70.456 C164.868008,73.048013 167.723979,74.4639988 171.9,74.704 C176.076021,74.9440012 178.595996,73.864012 179.46,71.464 C180.804007,68.0079827 181.092004,65.4160086 180.324,63.688 C179.555996,61.9599914 177.588016,60.7120038 174.42,59.944 C171.443985,59.3679971 168.612013,58.1440094 165.924,56.272 C163.235987,54.3999906 161.076008,52.2160125 159.444,49.72 C157.811992,47.2239875 156.996,44.776012 156.996,42.376 C156.996,38.5359808 157.811992,35.2960132 159.444,32.656 C161.076008,30.0159868 163.763981,27.496012 167.508,25.096 Z M216.18,5.944 C217.620007,4.21599136 219.851985,3.4719988 222.876,3.712 C225.900015,3.9520012 228.323991,5.07998992 230.148,7.096 C231.492007,8.5360072 232.235999,9.99999256 232.38,11.488 C232.524001,12.9760074 232.260003,15.2559846 231.588,18.328 C230.915997,21.3040149 230.436001,23.5599923 230.148,25.096 C229.859999,26.6320077 229.692,28.0239938 229.644,29.272 C229.596,30.5200062 229.859997,31.3839976 230.436,31.864 C231.012003,32.3440024 231.707996,32.679999 232.524,32.872 C233.340004,33.064001 234.515992,33.16 236.052,33.16 C242.772034,33.16 247.643985,35.7519741 250.668,40.936 C253.692015,46.1200259 255.204,54.5679414 255.204,66.28 C255.204,74.1520394 254.532007,79.4799861 253.188,82.264 C251.843993,85.0480139 249.252019,86.44 245.412,86.44 C240.611976,86.44 237.492007,85.144013 236.052,82.552 C234.611993,79.959987 234.227997,75.0160365 234.9,67.72 C235.764004,59.1759573 235.524007,54.904 234.18,54.904 C233.027994,54.904 231.44401,57.3759753 229.428,62.32 C227.41199,67.2640247 225.492009,73.1439659 223.668,79.96 C222.419994,84.952025 220.140017,88.9359851 216.828,91.912 C213.515983,94.8880149 210.468014,95.7040067 207.684,94.36 C205.76399,93.3039947 204.372004,92.2240055 203.508,91.12 C202.643996,90.0159945 202.116001,88.2400122 201.924,85.792 C201.731999,83.3439878 201.899997,80.4640166 202.428,77.152 C202.956003,73.8399834 203.843994,69.0640312 205.092,62.824 C208.356016,46.9839208 210.659993,34.1200494 212.004,24.232 C212.580003,20.1039794 213.299996,16.1920185 214.164,12.496 C215.028004,8.79998152 215.699998,6.61600336 216.18,5.944 Z M282.564,23.08 C288.708031,20.1999856 294.107977,18.9999976 298.764,19.48 C303.420023,19.9600024 308.339974,22.1679803 313.524,26.104 C315.924012,27.9280091 318.13199,29.8239902 320.148,31.792 C322.16401,33.7600098 323.315999,35.1279962 323.604,35.896 C323.892001,36.6640038 323.940001,38.5119854 323.748,41.44 C323.555999,44.3680146 323.172003,47.4159842 322.596,50.584 C321.827996,54.6160202 321.444,58.3599827 321.444,61.816 C321.444,65.2720173 321.803996,67.9599904 322.524,69.88 C323.244004,71.8000096 324.227994,72.664001 325.476,72.472 C330.468025,71.7999966 333.827991,72.5199894 335.556,74.632 C337.284009,76.7440106 336.708014,79.3839842 333.828,82.552 C331.235987,85.2400134 327.90002,86.488001 323.82,86.296 C319.73998,86.103999 316.116016,84.4240158 312.948,81.256 L307.764,76.36 L300.276,81.256 C293.651967,85.7680226 286.572038,87.328007 279.036,85.936 C271.499962,84.543993 265.76402,80.5840326 261.828,74.056 C259.715989,70.6959832 258.444002,66.2320278 258.012,60.664 C257.579998,55.0959722 258.131992,50.3440197 259.668,46.408 C261.204008,42.3759798 264.347976,37.960024 269.1,33.16 C273.852024,28.359976 278.339979,25.0000096 282.564,23.08 Z M305.172,38.488 C305.172,35.5119851 302.868023,34.5519947 298.26,35.608 C292.787973,36.7600058 287.940021,39.5439779 283.716,43.96 C282.563994,45.1120058 281.652003,46.2639942 280.98,47.416 C278.96399,50.5840158 277.524004,55.1919698 276.66,61.24 L275.364,70.6 L281.412,70.6 C284.964018,70.6 288.611981,68.9920161 292.356,65.776 C296.100019,62.5599839 299.171988,58.4320252 301.572,53.392 C303.972012,48.3519748 305.172,43.3840245 305.172,38.488 Z M359.604,27.688 C368.820046,25.3839885 375.683977,25.0239921 380.196,26.608 C384.708023,28.1920079 388.643983,32.2959669 392.004,38.92 C393.444007,41.8000144 394.355998,44.5599868 394.74,47.2 C395.124002,49.8400132 395.124002,53.5119765 394.74,58.216 C394.259998,63.3040254 394.187998,66.7839906 394.524,68.656 C394.860002,70.5280094 395.843992,72.3279914 397.476,74.056 C400.164013,76.648013 402.419991,78.3279962 404.244,79.096 C404.820003,79.288001 405.203999,79.5279986 405.396,79.816 C405.588001,80.1040014 405.588001,80.4639978 405.396,80.896 C405.203999,81.3280022 404.868002,81.8079974 404.388,82.336 C403.907998,82.8640026 403.188005,83.5119962 402.228,84.28 C399.155985,86.9680134 396.348013,88.2400007 393.804,88.096 C391.259987,87.9519993 388.212018,86.3920149 384.66,83.416 C380.531979,79.9599827 377.724007,76.0480218 376.236,71.68 C374.747993,67.3119782 374.339997,61.7200341 375.012,54.904 C375.780004,46.4559578 375.252009,42.6159962 373.428,43.384 C371.315989,44.2480043 368.148021,50.7279395 363.924,62.824 C357.011965,83.1761018 349.668039,89.0800427 341.892,80.536 C340.163991,78.5199899 339.252,76.7440077 339.156,75.208 C339.06,73.6719923 339.779992,69.9760293 341.316,64.12 C343.524011,55.6719578 345.107995,48.1360331 346.068,41.512 C346.452002,38.5359851 346.979997,35.9680108 347.652,33.808 C348.324003,31.6479892 348.947997,30.472001 349.524,30.28 C350.676006,30.087999 354.035972,29.2240077 359.604,27.688 Z M411.444,77.8 C413.556011,75.591989 415.931987,74.583999 418.572,74.776 C421.212013,74.968001 423.683988,76.359987 425.988,78.952 C428.484012,81.6400134 429.78,84.3039868 429.876,86.944 C429.972,89.5840132 428.868012,91.7679914 426.564,93.496 C424.54799,95.0320077 422.364012,95.8239998 420.012,95.872 C417.659988,95.9200002 415.620009,95.344006 413.892,94.144 C412.163991,92.943994 410.748006,91.4560089 409.644,89.68 C408.539994,87.9039911 408.107999,85.912011 408.348,83.704 C408.588001,81.495989 409.619991,79.5280086 411.444,77.8 Z M444.708,1.048 C447.012012,0.47199712 449.819983,0.56799616 453.132,1.336 C456.444017,2.10400384 458.867992,3.25599232 460.404,4.792 C461.940008,6.42400816 462.108006,8.60798632 460.908,11.344 C459.707994,14.0800137 457.956012,15.448 455.652,15.448 C451.139977,15.448 447.204017,13.5760187 443.844,9.832 C440.867985,6.56798368 440.33999,4.02400912 442.26,2.2 C442.932003,1.7199976 443.747995,1.33600144 444.708,1.048 Z M442.26,34.888 C443.220005,33.2559918 445.619981,32.7039974 449.46,33.232 C453.300019,33.7600026 455.987992,35.0319899 457.524,37.048 C458.676006,38.8720091 459.156001,41.1519863 458.964,43.888 C458.771999,46.6240137 457.764009,52.4559554 455.94,61.384 C453.059986,74.8240672 451.140005,82.6959885 450.18,85 C449.123995,87.208011 446.772018,88.2880002 443.124,88.24 C439.475982,88.1919998 436.64401,87.064011 434.628,84.856 C433.571995,83.7039942 432.948001,82.4080072 432.756,80.968 C432.563999,79.5279928 432.707998,77.3680144 433.188,74.488 C433.668002,71.6079856 434.723992,66.472037 436.356,59.08 C439.428015,44.487927 441.395996,36.4240077 442.26,34.888 Z M480.42,30.28 C484.068018,27.7839875 486.995989,26.2960024 489.204,25.816 C491.412011,25.3359976 495.49197,25.3359976 501.444,25.816 C509.316039,26.5840038 514.883984,27.7359923 518.148,29.272 C521.412016,30.8080077 524.291988,33.6399794 526.788,37.768 C529.188012,41.7040197 530.412,46.4079726 530.46,51.88 C530.508,57.3520274 529.332012,62.6319746 526.932,67.72 C524.723989,72.4240235 521.820018,76.4319834 518.22,79.744 C514.619982,83.0560166 510.80402,85.4319928 506.772,86.872 C502.73998,88.3120072 498.564022,88.936001 494.244,88.744 C489.923978,88.551999 485.892019,87.5920086 482.148,85.864 C478.403981,84.1359914 475.068015,81.472018 472.14,77.872 C469.211985,74.271982 467.076007,70.0240245 465.732,65.128 C464.195992,59.6559726 464.147993,54.3760254 465.588,49.288 C467.124008,44.5839765 468.803991,41.032012 470.628,38.632 C472.452009,36.231988 475.715976,33.4480158 480.42,30.28 Z M505.044,43.096 C505.044,41.1759904 503.316017,40.5519966 499.86,41.224 C496.499983,41.9920038 493.764011,43.4319894 491.652,45.544 C488.675985,48.7120158 486.588006,52.3839791 485.388,56.56 C484.187994,60.7360209 484.067995,64.4799834 485.028,67.792 C485.988005,71.1040166 487.859986,73.0959966 490.644,73.768 C492.852011,74.3440029 495.083989,74.1760046 497.34,73.264 C499.596011,72.3519954 501.68399,70.8640103 503.604,68.8 C505.52401,66.7359897 507.251992,64.1680154 508.788,61.096 C510.324008,58.0239846 511.427997,54.7120178 512.1,51.16 C512.676003,48.4719866 512.796002,46.7680036 512.46,46.048 C512.123998,45.3279964 511.044009,44.968 509.22,44.968 C508.451996,44.968 507.756003,44.872001 507.132,44.68 C506.507997,44.487999 506.004002,44.2480014 505.62,43.96 C505.235998,43.6719986 505.044,43.3840014 505.044,43.096 Z" id="wushan.io" fill="#000000"></path>
            <path d="M179.298828,140.895508 C178.70182,140.699543 178.139,140.601562 177.610352,140.601562 C177.031573,140.601562 176.573569,140.698404 176.236328,140.89209 C175.899087,141.085776 175.730469,141.344399 175.730469,141.667969 C175.730469,141.873048 175.807942,142.05192 175.962891,142.20459 C176.117839,142.35726 176.427732,142.499674 176.892578,142.631836 L177.911133,142.925781 C178.380536,143.057943 178.763345,143.216308 179.05957,143.400879 C179.355796,143.58545 179.577961,143.808755 179.726074,144.070801 C179.874187,144.332846 179.948242,144.637043 179.948242,144.983398 C179.948242,145.662438 179.663414,146.199054 179.09375,146.593262 C178.524086,146.987469 177.799484,147.18457 176.919922,147.18457 C176.044917,147.18457 175.322594,147.05241 174.75293,146.788086 L174.958008,145.865234 C175.555016,146.147788 176.195309,146.289062 176.878906,146.289062 C177.471357,146.289062 177.953286,146.178549 178.324707,145.95752 C178.696128,145.73649 178.881836,145.443687 178.881836,145.079102 C178.881836,144.833007 178.789552,144.613119 178.60498,144.419434 C178.420409,144.225748 177.986332,144.02409 177.302734,143.814453 C176.751299,143.645832 176.345704,143.519369 176.085938,143.435059 C175.826171,143.350748 175.584637,143.226563 175.361328,143.0625 C175.13802,142.898437 174.968262,142.702475 174.852051,142.474609 C174.735839,142.246744 174.677734,141.991538 174.677734,141.708984 C174.677734,141.093747 174.946612,140.606122 175.484375,140.246094 C176.022138,139.886066 176.735347,139.706055 177.624023,139.706055 C178.198245,139.706055 178.83626,139.804035 179.538086,140 L179.298828,140.895508 Z M185.683594,139.706055 C186.663416,139.706055 187.442705,140.047848 188.021484,140.731445 C188.600263,141.415042 188.889648,142.315099 188.889648,143.431641 C188.889648,144.557297 188.600263,145.464189 188.021484,146.152344 C187.442705,146.840498 186.663416,147.18457 185.683594,147.18457 C184.699214,147.18457 183.918785,146.841638 183.342285,146.155762 C182.765785,145.469886 182.477539,144.561855 182.477539,143.431641 C182.477539,142.310541 182.766924,141.409346 183.345703,140.728027 C183.924482,140.046709 184.703771,139.706055 185.683594,139.706055 Z M185.683594,146.254883 C186.330732,146.254883 186.841144,145.981448 187.214844,145.43457 C187.588544,144.887693 187.775391,144.224613 187.775391,143.445312 C187.775391,142.624996 187.590822,141.950523 187.22168,141.421875 C186.852537,140.893227 186.339847,140.628906 185.683594,140.628906 C185.022783,140.628906 184.510093,140.889809 184.145508,141.411621 C183.780923,141.933434 183.598633,142.611324 183.598633,143.445312 C183.598633,144.238285 183.783201,144.904782 184.152344,145.444824 C184.521486,145.984866 185.031898,146.254883 185.683594,146.254883 Z M197.407227,147 L196.34082,147 L196.34082,142.324219 C196.34082,141.194005 196.131187,140.628906 195.711914,140.628906 C195.49772,140.628906 195.261883,140.823729 195.004395,141.213379 C194.746906,141.603029 194.618164,141.818359 194.618164,141.859375 L194.618164,147 L193.558594,147 L193.558594,142.324219 C193.558594,141.194005 193.346682,140.628906 192.922852,140.628906 C192.713215,140.628906 192.479656,140.823729 192.222168,141.213379 C191.96468,141.603029 191.835938,141.818359 191.835938,141.859375 L191.835938,147 L190.769531,147 L190.769531,139.876953 L191.794922,139.876953 L191.794922,140.950195 C191.995444,140.571938 192.23356,140.270021 192.509277,140.044434 C192.784995,139.818847 193.059569,139.706055 193.333008,139.706055 C193.620119,139.706055 193.877603,139.818847 194.105469,140.044434 C194.333334,140.270021 194.490559,140.571938 194.577148,140.950195 C194.77767,140.571938 195.016926,140.270021 195.294922,140.044434 C195.572918,139.818847 195.846353,139.706055 196.115234,139.706055 C196.976567,139.706055 197.407227,140.476229 197.407227,142.016602 L197.407227,147 Z M205.459961,143.472656 L200.572266,143.472656 C200.572266,144.279301 200.805824,144.944659 201.272949,145.46875 C201.740074,145.992841 202.313148,146.254883 202.992188,146.254883 C203.639326,146.254883 204.306963,146.138673 204.995117,145.90625 L205.179688,146.760742 C204.550778,147.043296 203.817061,147.18457 202.978516,147.18457 C201.921219,147.18457 201.069014,146.845055 200.421875,146.166016 C199.774736,145.486976 199.451172,144.570969 199.451172,143.417969 C199.451172,142.287755 199.741696,141.386559 200.322754,140.714355 C200.903811,140.042152 201.654618,139.706055 202.575195,139.706055 C203.395512,139.706055 204.081377,140.018226 204.632812,140.642578 C205.184248,141.26693 205.459961,142.098628 205.459961,143.137695 L205.459961,143.472656 Z M204.297852,142.604492 C204.297852,142.0485 204.124676,141.580243 203.77832,141.199707 C203.431964,140.819171 203.044598,140.628906 202.616211,140.628906 C202.064776,140.628906 201.607912,140.811196 201.245605,141.175781 C200.883299,141.540366 200.681641,142.016599 200.640625,142.604492 L204.297852,142.604492 Z M217.62793,140.799805 C217.86491,140.471678 218.185057,140.207358 218.588379,140.006836 C218.991701,139.806314 219.416664,139.706055 219.863281,139.706055 C220.683598,139.706055 221.327309,140.04443 221.794434,140.721191 C222.261558,141.397953 222.495117,142.27864 222.495117,143.363281 C222.495117,144.457037 222.250165,145.367347 221.760254,146.094238 C221.270343,146.82113 220.610681,147.18457 219.78125,147.18457 C219.33919,147.18457 218.92562,147.074057 218.540527,146.853027 C218.155434,146.631998 217.851238,146.339195 217.62793,145.974609 L217.62793,149.816406 L216.561523,149.816406 L216.561523,139.876953 L217.62793,139.876953 L217.62793,140.799805 Z M217.62793,141.859375 L217.62793,144.819336 C217.828452,145.22038 218.099608,145.555337 218.441406,145.824219 C218.783205,146.0931 219.136391,146.227539 219.500977,146.227539 C220.075198,146.227539 220.532062,145.958662 220.871582,145.420898 C221.211102,144.883135 221.380859,144.215499 221.380859,143.417969 C221.380859,142.597652 221.219077,141.927737 220.895508,141.408203 C220.571938,140.888669 220.120771,140.628906 219.541992,140.628906 C218.790035,140.628906 218.152021,141.039058 217.62793,141.859375 Z M230.664062,143.472656 L225.776367,143.472656 C225.776367,144.279301 226.009926,144.944659 226.477051,145.46875 C226.944176,145.992841 227.517249,146.254883 228.196289,146.254883 C228.843428,146.254883 229.511064,146.138673 230.199219,145.90625 L230.383789,146.760742 C229.75488,147.043296 229.021163,147.18457 228.182617,147.18457 C227.12532,147.18457 226.273115,146.845055 225.625977,146.166016 C224.978838,145.486976 224.655273,144.570969 224.655273,143.417969 C224.655273,142.287755 224.945798,141.386559 225.526855,140.714355 C226.107913,140.042152 226.858719,139.706055 227.779297,139.706055 C228.599613,139.706055 229.285479,140.018226 229.836914,140.642578 C230.388349,141.26693 230.664062,142.098628 230.664062,143.137695 L230.664062,143.472656 Z M229.501953,142.604492 C229.501953,142.0485 229.328778,141.580243 228.982422,141.199707 C228.636066,140.819171 228.2487,140.628906 227.820312,140.628906 C227.268877,140.628906 226.812014,140.811196 226.449707,141.175781 C226.087401,141.540366 225.885742,142.016599 225.844727,142.604492 L229.501953,142.604492 Z M238.962891,140.068359 L238.532227,141.09375 C238.062823,140.888671 237.657228,140.786133 237.31543,140.786133 C237.000975,140.786133 236.693361,140.876138 236.392578,141.056152 C236.091795,141.236166 235.814943,141.493651 235.562012,141.828613 C235.309081,142.163576 235.182617,142.351562 235.182617,142.392578 L235.182617,147 L234.123047,147 L234.123047,139.876953 L235.182617,139.876953 L235.182617,141.319336 C235.752281,140.24381 236.490555,139.706055 237.397461,139.706055 C237.935224,139.706055 238.457029,139.826822 238.962891,140.068359 Z M246.509766,140.895508 C245.912757,140.699543 245.349938,140.601562 244.821289,140.601562 C244.24251,140.601562 243.784507,140.698404 243.447266,140.89209 C243.110024,141.085776 242.941406,141.344399 242.941406,141.667969 C242.941406,141.873048 243.018879,142.05192 243.173828,142.20459 C243.328777,142.35726 243.63867,142.499674 244.103516,142.631836 L245.12207,142.925781 C245.591474,143.057943 245.974282,143.216308 246.270508,143.400879 C246.566733,143.58545 246.788899,143.808755 246.937012,144.070801 C247.085124,144.332846 247.15918,144.637043 247.15918,144.983398 C247.15918,145.662438 246.874352,146.199054 246.304688,146.593262 C245.735023,146.987469 245.010421,147.18457 244.130859,147.18457 C243.255855,147.18457 242.533531,147.05241 241.963867,146.788086 L242.168945,145.865234 C242.765954,146.147788 243.406247,146.289062 244.089844,146.289062 C244.682295,146.289062 245.164223,146.178549 245.535645,145.95752 C245.907066,145.73649 246.092773,145.443687 246.092773,145.079102 C246.092773,144.833007 246.000489,144.613119 245.815918,144.419434 C245.631347,144.225748 245.197269,144.02409 244.513672,143.814453 C243.962237,143.645832 243.556642,143.519369 243.296875,143.435059 C243.037108,143.350748 242.795574,143.226563 242.572266,143.0625 C242.348957,142.898437 242.1792,142.702475 242.062988,142.474609 C241.946777,142.246744 241.888672,141.991538 241.888672,141.708984 C241.888672,141.093747 242.157549,140.606122 242.695312,140.246094 C243.233076,139.886066 243.946285,139.706055 244.834961,139.706055 C245.409183,139.706055 246.047197,139.804035 246.749023,140 L246.509766,140.895508 Z M252.894531,139.706055 C253.874354,139.706055 254.653643,140.047848 255.232422,140.731445 C255.811201,141.415042 256.100586,142.315099 256.100586,143.431641 C256.100586,144.557297 255.811201,145.464189 255.232422,146.152344 C254.653643,146.840498 253.874354,147.18457 252.894531,147.18457 C251.910151,147.18457 251.129723,146.841638 250.553223,146.155762 C249.976722,145.469886 249.688477,144.561855 249.688477,143.431641 C249.688477,142.310541 249.977862,141.409346 250.556641,140.728027 C251.13542,140.046709 251.914709,139.706055 252.894531,139.706055 Z M252.894531,146.254883 C253.54167,146.254883 254.052081,145.981448 254.425781,145.43457 C254.799481,144.887693 254.986328,144.224613 254.986328,143.445312 C254.986328,142.624996 254.80176,141.950523 254.432617,141.421875 C254.063475,140.893227 253.550785,140.628906 252.894531,140.628906 C252.233721,140.628906 251.72103,140.889809 251.356445,141.411621 C250.99186,141.933434 250.80957,142.611324 250.80957,143.445312 C250.80957,144.238285 250.994139,144.904782 251.363281,145.444824 C251.732424,145.984866 252.242835,146.254883 252.894531,146.254883 Z M264.057617,147 L262.991211,147 L262.991211,142.433594 C262.991211,141.800127 262.889812,141.340984 262.687012,141.056152 C262.484211,140.77132 262.166343,140.628906 261.733398,140.628906 C261.081702,140.628906 260.382165,141.034501 259.634766,141.845703 L259.634766,147 L258.568359,147 L258.568359,139.876953 L259.634766,139.876953 L259.634766,140.922852 C260.400394,140.11165 261.207027,139.706055 262.054688,139.706055 C263.389981,139.706055 264.057617,140.512687 264.057617,142.125977 L264.057617,147 Z M272.636719,147 L271.577148,147 C271.490559,146.712889 271.447266,146.330081 271.447266,145.851562 C270.841143,146.740239 270.016281,147.18457 268.972656,147.18457 C268.444008,147.18457 267.978029,146.996584 267.574707,146.620605 C267.171385,146.244627 266.969727,145.76042 266.969727,145.167969 C266.969727,144.817056 267.040364,144.507163 267.181641,144.238281 C267.322917,143.9694 267.530272,143.742677 267.803711,143.558105 C268.07715,143.373534 268.409829,143.227702 268.801758,143.120605 C269.193687,143.013509 269.658526,142.939453 270.196289,142.898438 L271.392578,142.802734 L271.392578,142.460938 C271.392578,141.239577 270.822922,140.628906 269.683594,140.628906 C269.414712,140.628906 269.074058,140.687011 268.661621,140.803223 C268.249184,140.919434 267.894858,141.057291 267.598633,141.216797 L267.318359,140.451172 C268.289067,139.954425 269.191402,139.706055 270.025391,139.706055 C271.647795,139.706055 272.458984,140.565096 272.458984,142.283203 L272.458984,145.345703 C272.458984,145.965498 272.518229,146.516925 272.636719,147 Z M271.392578,144.887695 L271.392578,143.595703 C270.430985,143.682292 269.771323,143.763183 269.413574,143.838379 C269.055825,143.913575 268.745932,144.05371 268.483887,144.258789 C268.221841,144.463868 268.09082,144.74186 268.09082,145.092773 C268.09082,145.411785 268.202473,145.66927 268.425781,145.865234 C268.64909,146.061199 268.933918,146.15918 269.280273,146.15918 C269.658531,146.15918 270.034503,146.046388 270.408203,145.820801 C270.781903,145.595214 271.110025,145.284182 271.392578,144.887695 Z M280.34082,147 L277.428711,147 L277.428711,138.277344 L275.569336,138.277344 L275.569336,137.354492 L278.495117,137.354492 L278.495117,146.077148 L280.34082,146.077148 L280.34082,147 Z M293.240234,140.799805 C293.477215,140.471678 293.797361,140.207358 294.200684,140.006836 C294.604006,139.806314 295.028969,139.706055 295.475586,139.706055 C296.295903,139.706055 296.939614,140.04443 297.406738,140.721191 C297.873863,141.397953 298.107422,142.27864 298.107422,143.363281 C298.107422,144.457037 297.86247,145.367347 297.372559,146.094238 C296.882647,146.82113 296.222986,147.18457 295.393555,147.18457 C294.951495,147.18457 294.537925,147.074057 294.152832,146.853027 C293.767739,146.631998 293.463543,146.339195 293.240234,145.974609 L293.240234,149.816406 L292.173828,149.816406 L292.173828,139.876953 L293.240234,139.876953 L293.240234,140.799805 Z M293.240234,141.859375 L293.240234,144.819336 C293.440756,145.22038 293.711912,145.555337 294.053711,145.824219 C294.39551,146.0931 294.748696,146.227539 295.113281,146.227539 C295.687503,146.227539 296.144367,145.958662 296.483887,145.420898 C296.823407,144.883135 296.993164,144.215499 296.993164,143.417969 C296.993164,142.597652 296.831382,141.927737 296.507812,141.408203 C296.184243,140.888669 295.733076,140.628906 295.154297,140.628906 C294.40234,140.628906 293.764326,141.039058 293.240234,141.859375 Z M306.173828,140.068359 L305.743164,141.09375 C305.273761,140.888671 304.868166,140.786133 304.526367,140.786133 C304.211912,140.786133 303.904298,140.876138 303.603516,141.056152 C303.302733,141.236166 303.02588,141.493651 302.772949,141.828613 C302.520018,142.163576 302.393555,142.351562 302.393555,142.392578 L302.393555,147 L301.333984,147 L301.333984,139.876953 L302.393555,139.876953 L302.393555,141.319336 C302.963219,140.24381 303.701493,139.706055 304.608398,139.706055 C305.146162,139.706055 305.667966,139.826822 306.173828,140.068359 Z M311.704102,139.706055 C312.683924,139.706055 313.463213,140.047848 314.041992,140.731445 C314.620771,141.415042 314.910156,142.315099 314.910156,143.431641 C314.910156,144.557297 314.620771,145.464189 314.041992,146.152344 C313.463213,146.840498 312.683924,147.18457 311.704102,147.18457 C310.719722,147.18457 309.939293,146.841638 309.362793,146.155762 C308.786293,145.469886 308.498047,144.561855 308.498047,143.431641 C308.498047,142.310541 308.787432,141.409346 309.366211,140.728027 C309.94499,140.046709 310.724279,139.706055 311.704102,139.706055 Z M311.704102,146.254883 C312.35124,146.254883 312.861652,145.981448 313.235352,145.43457 C313.609051,144.887693 313.795898,144.224613 313.795898,143.445312 C313.795898,142.624996 313.61133,141.950523 313.242188,141.421875 C312.873045,140.893227 312.360355,140.628906 311.704102,140.628906 C311.043291,140.628906 310.530601,140.889809 310.166016,141.411621 C309.80143,141.933434 309.619141,142.611324 309.619141,143.445312 C309.619141,144.238285 309.803709,144.904782 310.172852,145.444824 C310.541994,145.984866 311.052406,146.254883 311.704102,146.254883 Z M320.570312,137.183594 C320.770834,137.183594 320.941731,137.25537 321.083008,137.398926 C321.224285,137.542481 321.294922,137.714517 321.294922,137.915039 C321.294922,138.124676 321.225424,138.30013 321.086426,138.441406 C320.947428,138.582683 320.775392,138.65332 320.570312,138.65332 C320.383463,138.65332 320.218262,138.579265 320.074707,138.431152 C319.931152,138.28304 319.859375,138.111004 319.859375,137.915039 C319.859375,137.719075 319.931152,137.548178 320.074707,137.402344 C320.218262,137.25651 320.383463,137.183594 320.570312,137.183594 Z M321.089844,147.362305 C321.089844,148.255538 320.936037,148.887856 320.628418,149.259277 C320.320799,149.630698 319.784184,149.816406 319.018555,149.816406 C318.526365,149.816406 317.979495,149.722983 317.37793,149.536133 L317.658203,148.667969 C318.164065,148.813803 318.617511,148.886719 319.018555,148.886719 C319.401369,148.886719 319.66455,148.778484 319.808105,148.562012 C319.951661,148.345539 320.023438,147.909183 320.023438,147.25293 L320.023438,140.799805 L317.924805,140.799805 L317.924805,139.876953 L321.089844,139.876953 L321.089844,147.362305 Z M331.480469,143.472656 L326.592773,143.472656 C326.592773,144.279301 326.826332,144.944659 327.293457,145.46875 C327.760582,145.992841 328.333655,146.254883 329.012695,146.254883 C329.659834,146.254883 330.327471,146.138673 331.015625,145.90625 L331.200195,146.760742 C330.571286,147.043296 329.837569,147.18457 328.999023,147.18457 C327.941726,147.18457 327.089521,146.845055 326.442383,146.166016 C325.795244,145.486976 325.47168,144.570969 325.47168,143.417969 C325.47168,142.287755 325.762204,141.386559 326.343262,140.714355 C326.924319,140.042152 327.675126,139.706055 328.595703,139.706055 C329.41602,139.706055 330.101885,140.018226 330.65332,140.642578 C331.204755,141.26693 331.480469,142.098628 331.480469,143.137695 L331.480469,143.472656 Z M330.318359,142.604492 C330.318359,142.0485 330.145184,141.580243 329.798828,141.199707 C329.452472,140.819171 329.065106,140.628906 328.636719,140.628906 C328.085284,140.628906 327.62842,140.811196 327.266113,141.175781 C326.903807,141.540366 326.702149,142.016599 326.661133,142.604492 L330.318359,142.604492 Z M339.642578,146.760742 C339.022783,147.043296 338.341475,147.18457 337.598633,147.18457 C336.477533,147.18457 335.583174,146.843916 334.915527,146.162598 C334.247881,145.481279 333.914062,144.575526 333.914062,143.445312 C333.914062,142.315099 334.250159,141.409346 334.922363,140.728027 C335.594567,140.046709 336.477534,139.706055 337.571289,139.706055 C338.286787,139.706055 338.968096,139.831379 339.615234,140.082031 L339.334961,140.963867 C338.687822,140.740559 338.104495,140.628906 337.584961,140.628906 C336.801103,140.628906 336.180178,140.881833 335.722168,141.387695 C335.264158,141.893557 335.035156,142.579423 335.035156,143.445312 C335.035156,144.238285 335.272133,144.904782 335.746094,145.444824 C336.220054,145.984866 336.837561,146.254883 337.598633,146.254883 C338.200198,146.254883 338.819984,146.138673 339.458008,145.90625 L339.642578,146.760742 Z M348.139648,146.678711 C347.42415,147.006838 346.720056,147.170898 346.027344,147.170898 C344.755853,147.170898 344.120117,146.498705 344.120117,145.154297 L344.120117,140.799805 L342.75293,140.799805 L342.75293,139.876953 L344.120117,139.876953 L344.120117,137.928711 L345.15918,137.928711 L345.15918,139.876953 L347.579102,139.876953 L347.579102,140.799805 L345.15918,140.799805 L345.15918,144.874023 C345.15918,145.306968 345.254882,145.643065 345.446289,145.882324 C345.637696,146.121583 345.897459,146.241211 346.225586,146.241211 C346.808922,146.241211 347.385414,146.111329 347.955078,145.851562 L348.139648,146.678711 Z M355.727539,140.895508 C355.130531,140.699543 354.567711,140.601562 354.039062,140.601562 C353.460284,140.601562 353.00228,140.698404 352.665039,140.89209 C352.327798,141.085776 352.15918,141.344399 352.15918,141.667969 C352.15918,141.873048 352.236653,142.05192 352.391602,142.20459 C352.54655,142.35726 352.856443,142.499674 353.321289,142.631836 L354.339844,142.925781 C354.809247,143.057943 355.192056,143.216308 355.488281,143.400879 C355.784507,143.58545 356.006672,143.808755 356.154785,144.070801 C356.302898,144.332846 356.376953,144.637043 356.376953,144.983398 C356.376953,145.662438 356.092125,146.199054 355.522461,146.593262 C354.952797,146.987469 354.228195,147.18457 353.348633,147.18457 C352.473628,147.18457 351.751305,147.05241 351.181641,146.788086 L351.386719,145.865234 C351.983727,146.147788 352.62402,146.289062 353.307617,146.289062 C353.900068,146.289062 354.381997,146.178549 354.753418,145.95752 C355.124839,145.73649 355.310547,145.443687 355.310547,145.079102 C355.310547,144.833007 355.218263,144.613119 355.033691,144.419434 C354.84912,144.225748 354.415042,144.02409 353.731445,143.814453 C353.18001,143.645832 352.774415,143.519369 352.514648,143.435059 C352.254882,143.350748 352.013347,143.226563 351.790039,143.0625 C351.566731,142.898437 351.396973,142.702475 351.280762,142.474609 C351.16455,142.246744 351.106445,141.991538 351.106445,141.708984 C351.106445,141.093747 351.375323,140.606122 351.913086,140.246094 C352.450849,139.886066 353.164058,139.706055 354.052734,139.706055 C354.626956,139.706055 355.26497,139.804035 355.966797,140 L355.727539,140.895508 Z" id="some-personal-projec" fill="#9B9B9B"></path>
        </g>
    </g>
</svg>