<?xml version="1.0" encoding="UTF-8"?>
<svg width="82px" height="72px" viewBox="0 0 82 72" version="1.1" xmlns="http://www.w3.org/2000/svg" xmlns:xlink="http://www.w3.org/1999/xlink">
    <!-- Generator: Sketch 42 (36781) - http://www.bohemiancoding.com/sketch -->
    <title>Group</title>
    <desc>Created with Sketch.</desc>
    <defs></defs>
    <g id="Page-1" stroke="none" stroke-width="1" fill="none" fill-rule="evenodd">
        <g id="Group" fill="#D60640">
            <path d="M35.952,35 L45.168,0.728 L37.776,0.728 L32.16,24.344 L32.064,24.344 L26.208,0.728 L19.152,0.728 L13.2,24.056 L13.104,24.056 L7.68,0.728 L0.144,0.728 L9.216,35 L16.848,35 L22.56,11.672 L22.656,11.672 L28.464,35 L35.952,35 Z M48.192,27.608 L48.192,35 L55.728,35 L55.728,27.608 L48.192,27.608 Z" id="W.-Copy"></path>
            <path d="M1.44,54.616 L2.832,54.616 L2.832,56.968 L2.88,56.968 C3.23200176,56.1039957 3.80399604,55.4360024 4.596,54.964 C5.38800396,54.4919976 6.28799496,54.256 7.296,54.256 C8.24000472,54.256 9.05999652,54.4319982 9.756,54.784 C10.4520035,55.1360018 11.0319977,55.611997 11.496,56.212 C11.9600023,56.812003 12.3039989,57.507996 12.528,58.3 C12.7520011,59.092004 12.864,59.9279956 12.864,60.808 C12.864,61.6880044 12.7520011,62.523996 12.528,63.316 C12.3039989,64.108004 11.9600023,64.803997 11.496,65.404 C11.0319977,66.004003 10.4520035,66.4759983 9.756,66.82 C9.05999652,67.1640017 8.24000472,67.336 7.296,67.336 C6.84799776,67.336 6.40000224,67.2800006 5.952,67.168 C5.50399776,67.0559994 5.08800192,66.8880011 4.704,66.664 C4.31999808,66.4399989 3.98000148,66.1600017 3.684,65.824 C3.38799852,65.4879983 3.1600008,65.0960022 3,64.648 L2.952,64.648 L2.952,71.56 L1.44,71.56 L1.44,54.616 Z M11.352,60.808 C11.352,60.1679968 11.2760008,59.5320032 11.124,58.9 C10.9719992,58.2679968 10.7320016,57.7040025 10.404,57.208 C10.0759984,56.7119975 9.65600256,56.3080016 9.144,55.996 C8.63199744,55.6839984 8.0160036,55.528 7.296,55.528 C6.46399584,55.528 5.7680028,55.6719986 5.208,55.96 C4.6479972,56.2480014 4.20000168,56.6319976 3.864,57.112 C3.52799832,57.5920024 3.29200068,58.1519968 3.156,58.792 C3.01999932,59.4320032 2.952,60.1039965 2.952,60.808 C2.952,61.4480032 3.02799924,62.0839968 3.18,62.716 C3.33200076,63.3480032 3.57999828,63.9119975 3.924,64.408 C4.26800172,64.9040025 4.71599724,65.3079984 5.268,65.62 C5.82000276,65.9320016 6.495996,66.088 7.296,66.088 C8.0160036,66.088 8.63199744,65.9320016 9.144,65.62 C9.65600256,65.3079984 10.0759984,64.9040025 10.404,64.408 C10.7320016,63.9119975 10.9719992,63.3480032 11.124,62.716 C11.2760008,62.0839968 11.352,61.4480032 11.352,60.808 Z M15.216,54.616 L15.216,67 L16.728,67 L16.728,60.4 C16.728,59.7439967 16.8399989,59.1400028 17.064,58.588 C17.2880011,58.0359972 17.603998,57.560002 18.012,57.16 C18.420002,56.759998 18.9039972,56.4520011 19.464,56.236 C20.0240028,56.0199989 20.6479966,55.9279998 21.336,55.96 L21.336,54.448 C20.2159944,54.3999998 19.252004,54.6479973 18.444,55.192 C17.635996,55.7360027 17.0400019,56.511995 16.656,57.52 L16.608,57.52 L16.608,54.616 L15.216,54.616 Z M28.008,55.528 C27.2879964,55.528 26.6560027,55.6799985 26.112,55.984 C25.5679973,56.2880015 25.1160018,56.6879975 24.756,57.184 C24.3959982,57.6800025 24.1240009,58.2439968 23.94,58.876 C23.7559991,59.5080032 23.664,60.1519967 23.664,60.808 C23.664,61.4640033 23.7559991,62.1079968 23.94,62.74 C24.1240009,63.3720032 24.3959982,63.9359975 24.756,64.432 C25.1160018,64.9280025 25.5679973,65.3279985 26.112,65.632 C26.6560027,65.9360015 27.2879964,66.088 28.008,66.088 C28.7280036,66.088 29.3599973,65.9360015 29.904,65.632 C30.4480027,65.3279985 30.8999982,64.9280025 31.26,64.432 C31.6200018,63.9359975 31.8919991,63.3720032 32.076,62.74 C32.2600009,62.1079968 32.352,61.4640033 32.352,60.808 C32.352,60.1519967 32.2600009,59.5080032 32.076,58.876 C31.8919991,58.2439968 31.6200018,57.6800025 31.26,57.184 C30.8999982,56.6879975 30.4480027,56.2880015 29.904,55.984 C29.3599973,55.6799985 28.7280036,55.528 28.008,55.528 Z M28.008,54.256 C28.9520047,54.256 29.7879964,54.4319982 30.516,54.784 C31.2440036,55.1360018 31.8559975,55.607997 32.352,56.2 C32.8480025,56.792003 33.2239987,57.483996 33.48,58.276 C33.7360013,59.068004 33.864,59.9119955 33.864,60.808 C33.864,61.7040045 33.7360013,62.547996 33.48,63.34 C33.2239987,64.132004 32.8480025,64.823997 32.352,65.416 C31.8559975,66.008003 31.2440036,66.4759983 30.516,66.82 C29.7879964,67.1640017 28.9520047,67.336 28.008,67.336 C27.0639953,67.336 26.2280036,67.1640017 25.5,66.82 C24.7719964,66.4759983 24.1600025,66.008003 23.664,65.416 C23.1679975,64.823997 22.7920013,64.132004 22.536,63.34 C22.2799987,62.547996 22.152,61.7040045 22.152,60.808 C22.152,59.9119955 22.2799987,59.068004 22.536,58.276 C22.7920013,57.483996 23.1679975,56.792003 23.664,56.2 C24.1600025,55.607997 24.7719964,55.1360018 25.5,54.784 C26.2280036,54.4319982 27.0639953,54.256 28.008,54.256 Z M36.144,49.864 L36.144,52.288 L37.656,52.288 L37.656,49.864 L36.144,49.864 Z M36.144,54.616 L36.144,68.488 C36.144,69.0000026 36.0640008,69.4279983 35.904,69.772 C35.7439992,70.1160017 35.368003,70.288 34.776,70.288 C34.6639994,70.3040001 34.5360007,70.308 34.392,70.3 C34.2479993,70.292 34.1120006,70.2800001 33.984,70.264 L33.984,71.512 C34.1600009,71.512 34.3319992,71.5199999 34.5,71.536 C34.6680008,71.5520001 34.8399991,71.56 35.016,71.56 C35.5440026,71.56 35.9799983,71.4680009 36.324,71.284 C36.6680017,71.0999991 36.939999,70.8520016 37.14,70.54 C37.340001,70.2279984 37.4759996,69.8640021 37.548,69.448 C37.6200004,69.0319979 37.656,68.5920023 37.656,68.128 L37.656,54.616 L36.144,54.616 Z M49.464,59.944 C49.4479999,59.3679971 49.3480009,58.8160026 49.164,58.288 C48.9799991,57.7599974 48.7200017,57.292002 48.384,56.884 C48.0479983,56.475998 47.6400024,56.1480012 47.16,55.9 C46.6799976,55.6519988 46.136003,55.528 45.528,55.528 C44.9039969,55.528 44.3520024,55.6519988 43.872,55.9 C43.3919976,56.1480012 42.9840017,56.475998 42.648,56.884 C42.3119983,57.292002 42.044001,57.7639973 41.844,58.3 C41.643999,58.8360027 41.5120003,59.3839972 41.448,59.944 L49.464,59.944 Z M41.448,61.216 C41.448,61.7600027 41.5239992,62.3239971 41.676,62.908 C41.8280008,63.4920029 42.0719983,64.0159977 42.408,64.48 C42.7440017,64.9440023 43.1679974,65.3279985 43.68,65.632 C44.1920026,65.9360015 44.8079964,66.088 45.528,66.088 C46.6320055,66.088 47.4959969,65.8000029 48.12,65.224 C48.7440031,64.6479971 49.1759988,63.8800048 49.416,62.92 L50.928,62.92 C50.6079984,64.328007 50.0200043,65.4159962 49.164,66.184 C48.3079957,66.9520038 47.0960078,67.336 45.528,67.336 C44.5519951,67.336 43.7080036,67.1640017 42.996,66.82 C42.2839964,66.4759983 41.7040022,66.004003 41.256,65.404 C40.8079978,64.803997 40.4760011,64.108004 40.26,63.316 C40.0439989,62.523996 39.936,61.6880044 39.936,60.808 C39.936,59.9919959 40.0439989,59.1920039 40.26,58.408 C40.4760011,57.6239961 40.8079978,56.9240031 41.256,56.308 C41.7040022,55.6919969 42.2839964,55.1960019 42.996,54.82 C43.7080036,54.4439981 44.5519951,54.256 45.528,54.256 C46.520005,54.256 47.3679965,54.455998 48.072,54.856 C48.7760035,55.256002 49.3479978,55.7799968 49.788,56.428 C50.2280022,57.0760032 50.543999,57.8199958 50.736,58.66 C50.928001,59.5000042 51.0080002,60.3519957 50.976,61.216 L41.448,61.216 Z M61.752,58.504 L63.264,58.504 C63.0879991,57.0799929 62.5400046,56.0160035 61.62,55.312 C60.6999954,54.6079965 59.5760066,54.256 58.248,54.256 C57.3039953,54.256 56.4680036,54.4319982 55.74,54.784 C55.0119964,55.1360018 54.4000025,55.607997 53.904,56.2 C53.4079975,56.792003 53.0320013,57.483996 52.776,58.276 C52.5199987,59.068004 52.392,59.9119955 52.392,60.808 C52.392,61.7040045 52.5199987,62.547996 52.776,63.34 C53.0320013,64.132004 53.4079975,64.823997 53.904,65.416 C54.4000025,66.008003 55.0119964,66.4759983 55.74,66.82 C56.4680036,67.1640017 57.3039953,67.336 58.248,67.336 C59.656007,67.336 60.8079955,66.9160042 61.704,66.076 C62.6000045,65.2359958 63.151999,64.0640075 63.36,62.56 L61.848,62.56 C61.7999998,63.0720026 61.672001,63.5439978 61.464,63.976 C61.255999,64.4080022 60.9920016,64.7799984 60.672,65.092 C60.3519984,65.4040016 59.9840021,65.6479991 59.568,65.824 C59.1519979,66.0000009 58.7120023,66.088 58.248,66.088 C57.5279964,66.088 56.8960027,65.9360015 56.352,65.632 C55.8079973,65.3279985 55.3560018,64.9280025 54.996,64.432 C54.6359982,63.9359975 54.3640009,63.3720032 54.18,62.74 C53.9959991,62.1079968 53.904,61.4640033 53.904,60.808 C53.904,60.1519967 53.9959991,59.5080032 54.18,58.876 C54.3640009,58.2439968 54.6359982,57.6800025 54.996,57.184 C55.3560018,56.6879975 55.8079973,56.2880015 56.352,55.984 C56.8960027,55.6799985 57.5279964,55.528 58.248,55.528 C59.256005,55.528 60.0399972,55.7919974 60.6,56.32 C61.1600028,56.8480026 61.543999,57.5759954 61.752,58.504 Z M67.872,54.616 L67.872,50.896 L66.36,50.896 L66.36,54.616 L64.2,54.616 L64.2,55.888 L66.36,55.888 L66.36,64.36 C66.3439999,65.4160053 66.535998,66.139998 66.936,66.532 C67.336002,66.924002 68.039995,67.12 69.048,67.12 C69.2720011,67.12 69.4959989,67.1120001 69.72,67.096 C69.9440011,67.0799999 70.1679989,67.072 70.392,67.072 L70.392,65.8 C69.9599978,65.8480002 69.5280022,65.872 69.096,65.872 C68.5519973,65.8399998 68.2120007,65.6840014 68.076,65.404 C67.9399993,65.1239986 67.872,64.7360025 67.872,64.24 L67.872,55.888 L70.392,55.888 L70.392,54.616 L67.872,54.616 Z M79.992,58.24 L81.504,58.24 C81.4719998,57.5679966 81.3360012,56.9840025 81.096,56.488 C80.8559988,55.9919975 80.532002,55.5760017 80.124,55.24 C79.715998,54.9039983 79.2440027,54.6560008 78.708,54.496 C78.1719973,54.3359992 77.5920031,54.256 76.968,54.256 C76.4239973,54.256 75.8760028,54.3199994 75.324,54.448 C74.7719972,54.5760006 74.2720022,54.7759986 73.824,55.048 C73.3759978,55.3200014 73.0120014,55.6799978 72.732,56.128 C72.4519986,56.5760022 72.312,57.1119969 72.312,57.736 C72.312,58.2640026 72.3999991,58.7079982 72.576,59.068 C72.7520009,59.4280018 72.9959984,59.7319988 73.308,59.98 C73.6200016,60.2280012 73.9839979,60.4359992 74.4,60.604 C74.8160021,60.7720008 75.2719975,60.9199994 75.768,61.048 L77.712,61.48 C78.0480017,61.5600004 78.3799984,61.6559994 78.708,61.768 C79.0360016,61.8800006 79.3279987,62.0199992 79.584,62.188 C79.8400013,62.3560008 80.0439992,62.5639988 80.196,62.812 C80.3480008,63.0600012 80.424,63.3679982 80.424,63.736 C80.424,64.1680022 80.3160011,64.5319985 80.1,64.828 C79.8839989,65.1240015 79.6080017,65.367999 79.272,65.56 C78.9359983,65.752001 78.572002,65.8879996 78.18,65.968 C77.787998,66.0480004 77.4080018,66.088 77.04,66.088 C76.031995,66.088 75.1880034,65.8280026 74.508,65.308 C73.8279966,64.7879974 73.4560003,64.0160051 73.392,62.992 L71.88,62.992 C72.0080006,64.5120076 72.5239955,65.6159966 73.428,66.304 C74.3320045,66.9920034 75.5119927,67.336 76.968,67.336 C77.5440029,67.336 78.127997,67.2720006 78.72,67.144 C79.312003,67.0159994 79.8439976,66.8040015 80.316,66.508 C80.7880024,66.2119985 81.1759985,65.8280024 81.48,65.356 C81.7840015,64.8839976 81.936,64.3120034 81.936,63.64 C81.936,63.0959973 81.832001,62.624002 81.624,62.224 C81.415999,61.823998 81.1480016,61.4880014 80.82,61.216 C80.4919984,60.9439986 80.1160021,60.7240008 79.692,60.556 C79.2679979,60.3879992 78.8400022,60.2720003 78.408,60.208 L76.392,59.752 C76.1359987,59.6879997 75.8560015,59.6040005 75.552,59.5 C75.2479985,59.3959995 74.9680013,59.2640008 74.712,59.104 C74.4559987,58.9439992 74.2440008,58.7480012 74.076,58.516 C73.9079992,58.2839988 73.824,58.0000017 73.824,57.664 C73.824,57.263998 73.9119991,56.9280014 74.088,56.656 C74.2640009,56.3839986 74.4959986,56.1640008 74.784,55.996 C75.0720014,55.8279992 75.3879983,55.7080004 75.732,55.636 C76.0760017,55.5639996 76.4159983,55.528 76.752,55.528 C77.1840022,55.528 77.5919981,55.5799995 77.976,55.684 C78.3600019,55.7880005 78.6999985,55.9519989 78.996,56.176 C79.2920015,56.4000011 79.5279991,56.6839983 79.704,57.028 C79.8800009,57.3720017 79.9759999,57.7759977 79.992,58.24 Z" id="projects-copy"></path>
        </g>
    </g>
</svg>